<svg width="646" height="112" viewBox="0 0 646 112" fill="none" xmlns="http://www.w3.org/2000/svg">
<g clip-path="url(#clip0_123_58)">
<path d="M26.83 22.8701H26.75L26.79 22.8201C26.8 22.8401 26.82 22.8501 26.83 22.8701Z" fill="white"/>
<path d="M37.8998 56.9801C37.4898 62.4201 36.2798 67.5501 34.6298 72.2301C31.6498 73.4201 28.8798 74.8901 26.2898 76.6701C32.0898 64.2601 36.9098 44.7901 22.8198 27.3601L27.0498 23.1301C30.9698 27.8601 33.8698 33.0101 35.6998 38.4801C37.6498 44.3001 38.3898 50.5301 37.9098 56.9801H37.8998Z" fill="white"/>
<path d="M88.75 84.2201L84.52 88.4501C80.61 83.7201 77.7 78.5701 75.87 73.1001C73.93 67.2801 73.18 61.0501 73.67 54.6001C74.1 48.8101 75.45 43.3701 77.26 38.4501C80.16 37.2701 82.98 35.8001 85.68 34.0601C79.71 46.4101 74.32 66.3901 88.75 84.2201V84.2201Z" fill="white"/>
<path d="M84.2201 22.8301L88.4401 27.0501C83.7101 30.9701 78.5601 33.8701 73.0901 35.7001C67.2701 37.6401 61.0401 38.3901 54.5901 37.9001C48.8001 37.4701 43.3601 36.1201 38.4401 34.3101C37.2601 31.4101 35.8001 28.5901 34.0601 25.8901C46.4201 31.8601 66.3901 37.2401 84.2101 22.8201H84.2201V22.8301Z" fill="white"/>
<path d="M88.7502 26.79L88.7402 26.8V26.79H88.7502Z" fill="white"/>
<path d="M76.8399 84.61C64.4399 78.81 44.8699 74.03 27.3699 88.75L27.3399 88.73L23.1099 84.5C27.8399 79.85 32.9999 76.94 38.4799 75.11C44.2999 73.17 50.5299 72.42 56.9799 72.91C62.6299 73.33 67.9499 74.63 72.7699 76.37C73.8499 79.21 75.2099 81.96 76.8299 84.61H76.8399Z" fill="white"/>
<path d="M4.06489 28.24L-0.000976562 32.3059L3.8174 36.1243L7.88326 32.0584L4.06489 28.24Z" fill="white"/>
<path d="M8.35493 23.9532L4.28906 28.019L8.10744 31.8374L12.1733 27.7716L8.35493 23.9532Z" fill="white"/>
<path d="M12.645 19.6661L8.5791 23.7319L12.3975 27.5503L16.4633 23.4844L12.645 19.6661Z" fill="white"/>
<path d="M23.728 8.57964L19.6621 12.6455L23.4805 16.4639L27.5464 12.398L23.728 8.57964Z" fill="white"/>
<path d="M28.018 4.29253L23.9521 8.3584L27.7705 12.1768L31.8364 8.11091L28.018 4.29253Z" fill="white"/>
<path d="M32.3081 -0.00434183L28.2422 4.06152L32.0606 7.8799L36.1264 3.81403L32.3081 -0.00434183Z" fill="white"/>
<path d="M12.8799 19.4499L16.6799 23.2399L21.8499 21.8599L23.2399 16.6799L19.4499 12.8899L14.2699 14.2699L12.8799 19.4499Z" fill="white"/>
<path d="M107.501 28.2402L103.682 32.0586L107.748 36.1245L111.566 32.3061L107.501 28.2402Z" fill="white"/>
<path d="M103.213 23.9502L99.395 27.7686L103.461 31.8344L107.279 28.016L103.213 23.9502Z" fill="white"/>
<path d="M98.9263 19.6601L95.1079 23.4785L99.1738 27.5444L102.992 23.726L98.9263 19.6601Z" fill="white"/>
<path d="M87.8467 8.5803L84.0283 12.3987L88.0942 16.4645L91.9126 12.6462L87.8467 8.5803Z" fill="white"/>
<path d="M83.5601 4.29027L79.7417 8.10864L83.8076 12.1745L87.6259 8.35613L83.5601 4.29027Z" fill="white"/>
<path d="M79.2559 0.00730596L75.4375 3.82568L79.5034 7.89155L83.3217 4.07317L79.2559 0.00730596Z" fill="white"/>
<path d="M98.6901 19.4501L94.9001 23.2401L89.7201 21.8601L88.3301 16.6801L92.1201 12.8901L97.3001 14.2701L98.6901 19.4501Z" fill="white"/>
<path d="M3.81593 75.4455L-0.00244141 79.2639L4.06342 83.3298L7.8818 79.5114L3.81593 75.4455Z" fill="white"/>
<path d="M8.10304 79.7356L4.28467 83.554L8.35053 87.6198L12.1689 83.8014L8.10304 79.7356Z" fill="white"/>
<path d="M12.3999 84.0256L8.58154 87.844L12.6474 91.9099L16.4658 88.0915L12.3999 84.0256Z" fill="white"/>
<path d="M23.4766 95.1125L19.6582 98.9309L23.7241 102.997L27.5424 99.1784L23.4766 95.1125Z" fill="white"/>
<path d="M27.7803 99.3955L23.9619 103.214L28.0278 107.28L31.8462 103.461L27.7803 99.3955Z" fill="white"/>
<path d="M32.0674 103.696L28.249 107.514L32.3149 111.58L36.1333 107.761L32.0674 103.696Z" fill="white"/>
<path d="M12.8799 92.1201L16.6799 88.3301L21.8499 89.7201L23.2399 94.9001L19.4499 98.6901L14.2699 97.3001L12.8799 92.1201Z" fill="white"/>
<path d="M107.76 75.4456L103.694 79.5115L107.513 83.3298L111.579 79.264L107.76 75.4456Z" fill="white"/>
<path d="M103.471 79.7325L99.4048 83.7983L103.223 87.6167L107.289 83.5508L103.471 79.7325Z" fill="white"/>
<path d="M99.1806 84.0196L95.1147 88.0854L98.9331 91.9038L102.999 87.838L99.1806 84.0196Z" fill="white"/>
<path d="M88.0932 95.106L84.0273 99.1719L87.8457 102.99L91.9116 98.9244L88.0932 95.106Z" fill="white"/>
<path d="M83.8032 99.4031L79.7373 103.469L83.5557 107.287L87.6215 103.222L83.8032 99.4031Z" fill="white"/>
<path d="M79.5034 103.69L75.4375 107.756L79.2559 111.574L83.3217 107.508L79.5034 103.69Z" fill="white"/>
<path d="M98.6901 92.1198L94.9001 88.3298L89.7201 89.7198L88.3301 94.8998L92.1201 98.6898L97.3001 97.2998L98.6901 92.1198Z" fill="white"/>
<path d="M200.42 23.55L194.53 35.0801L167.57 88.14L140.61 35.0801L134.72 23.55H147.6L153.49 35.0801L167.57 62.7701L181.65 35.0801L187.54 23.55H200.42V23.55Z" fill="white"/>
<path d="M268.139 55.85C268.139 73.66 253.699 88.1501 235.939 88.1501C218.179 88.1501 203.739 73.66 203.739 55.85C203.739 38.04 218.179 23.55 235.939 23.55C253.699 23.55 268.139 38.04 268.139 55.85V55.85ZM256.639 55.85C256.639 44.41 247.349 35.09 235.939 35.09C224.529 35.09 215.239 44.41 215.239 55.85C215.239 67.29 224.529 76.6101 235.939 76.6101C247.349 76.6101 256.639 67.29 256.639 55.85V55.85Z" fill="white"/>
<path d="M328.13 76.7101V88.2401H295.47C292.25 88.2401 289.21 87.5001 286.45 86.1201C282.4 84.0901 279.09 80.7701 277.16 76.7101C275.78 73.9401 275.04 70.9001 275.04 67.6701V23.6401H286.54V68.7701C287.09 72.8301 290.31 76.0601 294.36 76.6101L328.13 76.7001V76.7101Z" fill="white"/>
<path d="M384.44 23.6401V35.1801H358.03V88.2401H346.53V35.1801H320.12V23.6401H384.43H384.44Z" fill="white"/>
<path d="M437.62 88.1501H424.74L418.85 76.6101L404.77 48.93L390.69 76.6101L384.8 88.1501H371.92L377.81 76.6101L404.77 23.55L431.73 76.6101L437.62 88.1501Z" fill="white"/>
<path d="M445.63 55.85C445.63 67.29 454.92 76.6101 466.33 76.6101H498.53V88.1501H466.33C448.57 88.1501 434.13 73.66 434.13 55.85C434.13 38.04 448.57 23.55 466.33 23.55H498.53V35.0801H466.33C454.92 35.0801 445.63 44.4001 445.63 55.84V55.85Z" fill="white"/>
<path d="M572.139 23.55V88.1501H560.639V58.53H519.239V88.1501H507.739V23.55H519.239V46.9901H560.639V23.55H572.139Z" fill="white"/>
<path d="M645.66 23.55V88.1501H634.16V61.57H600.21C597.08 61.57 594.14 60.8301 591.56 59.4501C585.4 56.3101 581.26 49.9401 581.26 42.5601V23.55H592.76V42.5601C592.76 46.7101 596.16 50.1301 600.3 50.1301H634.25V23.55H645.66Z" fill="white"/>
</g>
<defs>
<clipPath id="clip0_123_58">
<rect width="645.66" height="111.57" fill="white"/>
</clipPath>
</defs>
</svg>
