<?xml version="1.0" encoding="UTF-8"?>
<svg id="Layer_2" data-name="Layer 2" xmlns="http://www.w3.org/2000/svg" viewBox="0 0 826.03 921.95">
  <defs>
    <style>
      .cls-1 {
        fill: #fff;
      }
    </style>
  </defs>
  <g id="Layer_3" data-name="Layer 3">
    <g>
      <g>
        <path class="cls-1" d="M106.2,817.36l-9.52,18.65-43.58,85.79-43.58-85.79-9.52-18.65H20.82l9.52,18.65,22.76,44.76,22.76-44.76,9.52-18.65h20.82Z"/>
        <path class="cls-1" d="M215.69,869.58c0,28.8-23.35,52.22-52.06,52.22s-52.06-23.42-52.06-52.22,23.35-52.22,52.06-52.22,52.06,23.42,52.06,52.22Zm-18.59,0c0-18.5-15.02-33.57-33.47-33.57s-33.47,15.07-33.47,33.57,15.02,33.57,33.47,33.57,33.47-15.07,33.47-33.57Z"/>
        <path class="cls-1" d="M312.68,903.3v18.65h-52.81c-5.21,0-10.11-1.19-14.58-3.43-6.54-3.28-11.9-8.65-15.02-15.22-2.23-4.48-3.42-9.4-3.42-14.62v-71.17h18.59v72.96c.89,6.57,6.1,11.79,12.64,12.68l54.59,.15Z"/>
        <path class="cls-1" d="M403.72,817.51v18.65h-42.69v85.79h-18.59v-85.79h-42.69v-18.65h103.97Z"/>
        <path class="cls-1" d="M489.7,921.8h-20.82l-9.52-18.65-22.76-44.76-22.76,44.76-9.52,18.65h-20.83l9.52-18.65,43.58-85.79,43.58,85.79,9.52,18.65Z"/>
        <path class="cls-1" d="M502.65,869.58c0,18.5,15.02,33.57,33.47,33.57h52.06v18.65h-52.06c-28.71,0-52.06-23.42-52.06-52.22s23.35-52.22,52.06-52.22h52.06v18.65h-52.06c-18.44,0-33.47,15.07-33.47,33.57Z"/>
        <path class="cls-1" d="M707.18,817.36v104.44h-18.59v-47.89h-66.94v47.89h-18.59v-104.44h18.59v37.9h66.94v-37.9h18.59Z"/>
        <path class="cls-1" d="M826.03,817.36v104.44h-18.59v-42.97h-54.89c-5.06,0-9.82-1.19-13.98-3.43-9.97-5.07-16.66-15.37-16.66-27.3v-30.73h18.59v30.73c0,6.71,5.5,12.23,12.2,12.23h54.89v-42.97h18.44Z"/>
      </g>
      <g>
        <g>
          <path class="cls-1" d="M241.36,142.13h-.5s.25-.3,.25-.3c.08,.1,.17,.2,.25,.3Z"/>
          <path class="cls-1" d="M310.16,354.14c-2.52,33.8-10.09,65.69-20.3,94.79-18.55,7.41-35.76,16.56-51.84,27.58,36.06-77.11,66.03-198.15-21.59-306.47l26.28-26.28c24.34,29.37,42.39,61.4,53.74,95.41,12.09,36.2,16.7,74.88,13.71,114.97Z"/>
        </g>
        <path class="cls-1" d="M626.19,523.39h-.01s-26.28,26.29-26.28,26.29c-24.33-29.37-42.37-61.4-53.73-95.41-12.08-36.2-16.7-74.88-13.7-114.98,2.68-35.98,11.08-69.78,22.31-100.37,18.05-7.33,35.54-16.45,52.34-27.28-37.13,76.78-70.58,200.92,19.07,311.75Z"/>
        <g>
          <path class="cls-1" d="M598.05,141.91l26.21,26.21c-29.38,24.34-61.39,42.38-95.41,53.74-36.2,12.08-74.89,16.69-114.98,13.7-35.97-2.68-69.77-11.08-100.36-22.3-7.31-18.04-16.42-35.52-27.24-52.32,76.8,37.12,200.9,70.53,311.7-19.1l.08,.07Z"/>
          <path class="cls-1" d="M626.18,166.52s-.03,.02-.04,.03v-.06l.04,.03Z"/>
        </g>
        <path class="cls-1" d="M552.16,525.8c-77.05-36.03-198.69-65.74-307.47,25.76l-.16-.14-26.28-26.28c29.37-28.9,61.44-46.98,95.52-58.36,36.2-12.08,74.88-16.69,114.98-13.7,35.12,2.62,68.16,10.69,98.16,21.5,6.74,17.63,15.18,34.73,25.25,51.22Z"/>
        <g>
          <g>
            <rect class="cls-1" x="81.25" y="183.26" width="35.71" height="33.55" transform="translate(-112.42 128.67) rotate(-45)"/>
            <rect class="cls-1" x="107.91" y="156.6" width="35.71" height="33.55" transform="translate(-85.76 139.71) rotate(-45)"/>
            <rect class="cls-1" x="134.58" y="129.93" width="35.71" height="33.55" transform="translate(-59.09 150.76) rotate(-45)"/>
            <rect class="cls-1" x="203.46" y="61.06" width="35.71" height="33.55" transform="translate(9.79 179.29) rotate(-45)"/>
            <rect class="cls-1" x="230.12" y="34.39" width="35.71" height="33.55" transform="translate(36.45 190.33) rotate(-45)"/>
            <rect class="cls-1" x="256.8" y="7.71" width="35.71" height="33.55" transform="translate(63.13 201.38) rotate(-45)"/>
          </g>
          <polygon class="cls-1" points="154.69 120.89 178.25 144.45 210.43 135.83 219.05 103.65 195.5 80.09 163.32 88.71 154.69 120.89"/>
        </g>
        <g>
          <g>
            <rect class="cls-1" x="726.74" y="182.18" width="33.55" height="35.71" transform="translate(76.32 584.33) rotate(-45)"/>
            <rect class="cls-1" x="700.07" y="155.52" width="33.55" height="35.71" transform="translate(87.37 557.67) rotate(-45)"/>
            <rect class="cls-1" x="673.41" y="128.86" width="33.55" height="35.71" transform="translate(98.41 531) rotate(-45)"/>
            <rect class="cls-1" x="604.53" y="59.98" width="33.55" height="35.71" transform="translate(126.94 462.13) rotate(-45)"/>
            <rect class="cls-1" x="577.87" y="33.31" width="33.55" height="35.71" transform="translate(137.99 435.46) rotate(-45)"/>
            <rect class="cls-1" x="551.19" y="6.63" width="33.55" height="35.71" transform="translate(149.04 408.78) rotate(-45)"/>
          </g>
          <polygon class="cls-1" points="687.92 120.89 664.37 144.45 632.19 135.83 623.57 103.65 647.12 80.09 679.3 88.71 687.92 120.89"/>
        </g>
        <g>
          <g>
            <rect class="cls-1" x="82.33" y="475.51" width="33.55" height="35.71" transform="translate(-319.83 214.58) rotate(-45)"/>
            <rect class="cls-1" x="108.99" y="502.17" width="33.55" height="35.71" transform="translate(-330.88 241.24) rotate(-45)"/>
            <rect class="cls-1" x="135.66" y="528.84" width="33.55" height="35.71" transform="translate(-341.92 267.91) rotate(-45)"/>
            <rect class="cls-1" x="204.54" y="597.72" width="33.55" height="35.71" transform="translate(-370.45 336.79) rotate(-45)"/>
            <rect class="cls-1" x="231.2" y="624.38" width="33.55" height="35.71" transform="translate(-381.5 363.45) rotate(-45)"/>
            <rect class="cls-1" x="257.88" y="651.06" width="33.55" height="35.71" transform="translate(-392.55 390.13) rotate(-45)"/>
          </g>
          <polygon class="cls-1" points="154.69 572.51 178.25 548.95 210.43 557.57 219.05 589.75 195.5 613.31 163.32 604.69 154.69 572.51"/>
        </g>
        <g>
          <g>
            <rect class="cls-1" x="725.66" y="476.59" width="35.71" height="33.55" transform="translate(-131.09 670.25) rotate(-45)"/>
            <rect class="cls-1" x="698.99" y="503.25" width="35.71" height="33.55" transform="translate(-157.75 659.2) rotate(-45)"/>
            <rect class="cls-1" x="672.33" y="529.92" width="35.71" height="33.55" transform="translate(-184.42 648.16) rotate(-45)"/>
            <rect class="cls-1" x="603.45" y="598.79" width="35.71" height="33.55" transform="translate(-253.3 619.63) rotate(-45)"/>
            <rect class="cls-1" x="576.79" y="625.46" width="35.71" height="33.55" transform="translate(-279.96 608.58) rotate(-45)"/>
            <rect class="cls-1" x="550.11" y="652.14" width="35.71" height="33.55" transform="translate(-306.64 597.53) rotate(-45)"/>
          </g>
          <polygon class="cls-1" points="687.92 572.51 664.37 548.95 632.19 557.57 623.57 589.75 647.12 613.31 679.3 604.69 687.92 572.51"/>
        </g>
      </g>
    </g>
  </g>
</svg>